ply
format ascii 1.0
comment VCGLIB generated
element vertex 8
property float x
property float y
property float z
property float nx
property float ny
property float nz
property uchar red
property uchar green
property uchar blue
property float scale
element face 0
property list uchar int vertex_indices
end_header
4.45646 0.706379 -2.83672 -0.555571 0.746585 0.365994 130 131 130 0.1123
4.44723 0.705455 -2.83814 -0.57224 0.717265 0.397583 131 130 132 0.2354
4.45701 0.711328 -2.84258 -0.612809 0.631162 0.4755 146 144 142 0.3561
4.44913 0.710568 -2.84556 -0.561902 0.741332 0.367004 142 140 138 0.2222
4.44393 0.710198 -2.85234 -0.549754 0.657611 0.515091 143 141 140 0.0001
4.43852 0.710372 -2.85833 -0.516192 0.753085 0.407932 138 137 137 0.0002
4.46252 0.716535 -2.84258 -0.605901 0.682104 0.409412 144 148 143 0.9462
4.45578 0.71595 -2.84556 -0.568526 0.724427 0.389851 139 144 141 0.6485
